<svg width="67" height="66" viewBox="0 0 67 66" fill="none" xmlns="http://www.w3.org/2000/svg">
<path d="M33.5 18.9844C30.6924 18.9844 27.9479 19.8064 25.6135 21.3464C23.2791 22.8865 21.4597 25.0754 20.3852 27.6365C19.3108 30.1975 19.0297 33.0155 19.5774 35.7343C20.1252 38.4531 21.4771 40.9504 23.4624 42.9105C25.4476 44.8707 27.977 46.2055 30.7306 46.7463C33.4843 47.2871 36.3385 47.0096 38.9323 45.9487C41.5262 44.8879 43.7432 43.0915 45.303 40.7867C46.8628 38.4818 47.6953 35.772 47.6953 33C47.6953 29.2828 46.1997 25.7179 43.5376 23.0895C40.8755 20.461 37.2648 18.9844 33.5 18.9844V18.9844ZM33.5 39.7031C32.1573 39.7031 30.8447 39.31 29.7282 38.5734C28.6117 37.8369 27.7416 36.79 27.2277 35.5652C26.7139 34.3403 26.5794 32.9926 26.8414 31.6923C27.1033 30.392 27.7499 29.1976 28.6994 28.2602C29.6489 27.3227 30.8586 26.6843 32.1755 26.4257C33.4925 26.167 34.8575 26.2998 36.0981 26.8071C37.3386 27.3145 38.3989 28.1736 39.1449 29.2759C39.8909 30.3783 40.2891 31.6742 40.2891 33C40.2809 34.7753 39.5631 36.4756 38.2916 37.731C37.0202 38.9863 35.2981 39.6951 33.5 39.7031ZM48.3125 0.09375H18.6875C13.7769 0.09375 9.06733 2.0198 5.59498 5.4482C2.12262 8.8766 0.171875 13.5265 0.171875 18.375V47.625C0.171875 52.4735 2.12262 57.1234 5.59498 60.5518C9.06733 63.9802 13.7769 65.9062 18.6875 65.9062H48.3125C53.2231 65.9062 57.9327 63.9802 61.405 60.5518C64.8774 57.1234 66.8281 52.4735 66.8281 47.625V18.375C66.8281 13.5265 64.8774 8.8766 61.405 5.4482C57.9327 2.0198 53.2231 0.09375 48.3125 0.09375V0.09375ZM59.4219 47.625C59.4219 50.5341 58.2514 53.324 56.168 55.3811C54.0846 57.4381 51.2589 58.5938 48.3125 58.5938H18.6875C15.7411 58.5937 12.9154 57.4381 10.832 55.3811C8.74857 53.324 7.57813 50.5341 7.57812 47.625V18.375C7.57812 15.4659 8.74857 12.676 10.832 10.6189C12.9154 8.56188 15.7411 7.40625 18.6875 7.40625H48.3125C51.2589 7.40625 54.0846 8.56188 56.168 10.6189C58.2514 12.676 59.4219 15.4659 59.4219 18.375V47.625ZM54.4844 17.1562C54.4844 18.1204 54.1948 19.063 53.6523 19.8647C53.1097 20.6663 52.3386 21.2912 51.4364 21.6602C50.5342 22.0291 49.5414 22.1257 48.5836 21.9376C47.6258 21.7495 46.7461 21.2852 46.0555 20.6034C45.365 19.9216 44.8948 19.053 44.7042 18.1073C44.5137 17.1617 44.6115 16.1815 44.9852 15.2907C45.3589 14.3999 45.9918 13.6385 46.8037 13.1028C47.6157 12.5672 48.5703 12.2812 49.5469 12.2812C50.8564 12.2813 52.1123 12.7949 53.0382 13.7091C53.9642 14.6233 54.4844 15.8633 54.4844 17.1562Z" fill="#777777"/>
</svg>
