<svg width="79" height="79" viewBox="0 0 79 79" fill="none" xmlns="http://www.w3.org/2000/svg">
<path d="M55.9577 43.2195V55.3888H48.9036V44.0325C48.9036 41.1819 47.8832 39.2366 45.3289 39.2366C43.3802 39.2366 42.2183 40.5466 41.7081 41.8172C41.5237 42.2715 41.4743 42.9035 41.4743 43.5355V55.3888H34.417C34.417 55.3888 34.5125 36.1588 34.417 34.1674H41.4743V37.1727L41.4283 37.2418H41.4743V37.176C42.4125 35.7276 44.0846 33.6671 47.8338 33.6671C52.4751 33.6671 55.9577 36.702 55.9577 43.2195V43.2195ZM27.0338 23.9336C24.621 23.9336 23.041 25.5202 23.041 27.6005C23.041 29.6413 24.5749 31.2707 26.9416 31.2707H26.9877C29.4499 31.2707 30.9805 29.6381 30.9805 27.6005C30.9344 25.5202 29.4499 23.9336 27.0338 23.9336V23.9336ZM23.4591 55.3888H30.5164V34.1674H23.4591V55.3888V55.3888Z" fill="#777777"/>
<path d="M39.4997 65.8332C46.4837 65.8332 53.1817 63.0589 58.1202 58.1204C63.0586 53.1819 65.833 46.484 65.833 39.4999C65.833 32.5159 63.0586 25.8179 58.1202 20.8794C53.1817 15.941 46.4837 13.1666 39.4997 13.1666C32.5156 13.1666 25.8177 15.941 20.8792 20.8794C15.9407 25.8179 13.1663 32.5159 13.1663 39.4999C13.1663 46.484 15.9407 53.1819 20.8792 58.1204C25.8177 63.0589 32.5156 65.8332 39.4997 65.8332V65.8332ZM39.4997 72.4166C21.3198 72.4166 6.58301 57.6798 6.58301 39.4999C6.58301 21.32 21.3198 6.58325 39.4997 6.58325C57.6795 6.58325 72.4163 21.32 72.4163 39.4999C72.4163 57.6798 57.6795 72.4166 39.4997 72.4166Z" fill="#777777"/>
</svg>
