<svg width="79" height="79" viewBox="0 0 79 79" fill="none" xmlns="http://www.w3.org/2000/svg">
<path d="M49.3747 43.6363V55.8056H42.3206V44.4493C42.3206 41.5987 41.3002 39.6534 38.7459 39.6534C36.7972 39.6534 35.6353 40.9634 35.125 42.234C34.9407 42.6883 34.8913 43.3203 34.8913 43.9523V55.8056H27.834C27.834 55.8056 27.9295 36.5757 27.834 34.5842H34.8913V37.5895L34.8453 37.6586H34.8913V37.5928C35.8295 36.1444 37.5016 34.0839 41.2508 34.0839C45.8921 34.0839 49.3747 37.1188 49.3747 43.6363V43.6363ZM20.4508 24.3504C18.038 24.3504 16.458 25.937 16.458 28.0173C16.458 30.0582 17.9919 31.6875 20.3586 31.6875H20.4047C22.8669 31.6875 24.3975 30.0549 24.3975 28.0173C24.3514 25.937 22.8669 24.3504 20.4508 24.3504V24.3504ZM16.876 55.8056H23.9334V34.5842H16.876V55.8056V55.8056Z" fill="#777777"/>
<path d="M32.9167 66.25C39.9007 66.25 46.5987 63.4756 51.5371 58.5371C56.4756 53.5987 59.25 46.9007 59.25 39.9167C59.25 32.9326 56.4756 26.2346 51.5371 21.2962C46.5987 16.3577 39.9007 13.5833 32.9167 13.5833C25.9326 13.5833 19.2346 16.3577 14.2962 21.2962C9.35773 26.2346 6.58333 32.9326 6.58333 39.9167C6.58333 46.9007 9.35773 53.5987 14.2962 58.5371C19.2346 63.4756 25.9326 66.25 32.9167 66.25V66.25ZM32.9167 72.8333C14.7368 72.8333 0 58.0965 0 39.9167C0 21.7368 14.7368 7 32.9167 7C51.0965 7 65.8333 21.7368 65.8333 39.9167C65.8333 58.0965 51.0965 72.8333 32.9167 72.8333Z" fill="#777777"/>
</svg>
