<svg width="79" height="78" viewBox="0 0 79 78" fill="none" xmlns="http://www.w3.org/2000/svg">
<path d="M39.5 24.9844C36.6924 24.9844 33.9479 25.8064 31.6135 27.3464C29.2791 28.8865 27.4597 31.0754 26.3852 33.6365C25.3108 36.1975 25.0297 39.0155 25.5774 41.7343C26.1252 44.4531 27.4771 46.9504 29.4624 48.9105C31.4476 50.8707 33.977 52.2055 36.7306 52.7463C39.4843 53.2871 42.3385 53.0096 44.9323 51.9487C47.5262 50.8879 49.7432 49.0915 51.303 46.7867C52.8628 44.4818 53.6953 41.772 53.6953 39C53.6953 35.2828 52.1997 31.7179 49.5376 29.0895C46.8755 26.461 43.2648 24.9844 39.5 24.9844V24.9844ZM39.5 45.7031C38.1573 45.7031 36.8447 45.31 35.7282 44.5734C34.6117 43.8369 33.7416 42.79 33.2277 41.5652C32.7139 40.3403 32.5794 38.9926 32.8414 37.6923C33.1033 36.392 33.7499 35.1976 34.6994 34.2602C35.6489 33.3227 36.8586 32.6843 38.1755 32.4257C39.4925 32.167 40.8575 32.2998 42.0981 32.8071C43.3386 33.3145 44.3989 34.1736 45.1449 35.2759C45.8909 36.3783 46.2891 37.6742 46.2891 39C46.2809 40.7753 45.5631 42.4756 44.2916 43.731C43.0202 44.9863 41.2981 45.6951 39.5 45.7031ZM54.3125 6.09375H24.6875C19.7769 6.09375 15.0673 8.0198 11.595 11.4482C8.12262 14.8766 6.17188 19.5265 6.17188 24.375V53.625C6.17188 58.4735 8.12262 63.1234 11.595 66.5518C15.0673 69.9802 19.7769 71.9062 24.6875 71.9062H54.3125C59.2231 71.9062 63.9327 69.9802 67.405 66.5518C70.8774 63.1234 72.8281 58.4735 72.8281 53.625V24.375C72.8281 19.5265 70.8774 14.8766 67.405 11.4482C63.9327 8.0198 59.2231 6.09375 54.3125 6.09375V6.09375ZM65.4219 53.625C65.4219 56.5341 64.2514 59.324 62.168 61.3811C60.0846 63.4381 57.2589 64.5938 54.3125 64.5938H24.6875C21.7411 64.5938 18.9154 63.4381 16.832 61.3811C14.7486 59.324 13.5781 56.5341 13.5781 53.625V24.375C13.5781 21.4659 14.7486 18.676 16.832 16.6189C18.9154 14.5619 21.7411 13.4063 24.6875 13.4062H54.3125C57.2589 13.4063 60.0846 14.5619 62.168 16.6189C64.2514 18.676 65.4219 21.4659 65.4219 24.375V53.625ZM60.4844 23.1562C60.4844 24.1204 60.1948 25.063 59.6523 25.8647C59.1097 26.6663 58.3386 27.2912 57.4364 27.6602C56.5342 28.0291 55.5414 28.1257 54.5836 27.9376C53.6258 27.7495 52.7461 27.2852 52.0555 26.6034C51.365 25.9216 50.8948 25.053 50.7042 24.1073C50.5137 23.1617 50.6115 22.1815 50.9852 21.2907C51.3589 20.3999 51.9918 19.6385 52.8037 19.1028C53.6157 18.5672 54.5703 18.2812 55.5469 18.2812C56.8564 18.2812 58.1123 18.7949 59.0382 19.7091C59.9642 20.6233 60.4844 21.8633 60.4844 23.1562Z" fill="#777777"/>
</svg>
