<svg width="61" height="61" viewBox="0 0 61 61" fill="none" xmlns="http://www.w3.org/2000/svg">
<path d="M41.2934 24.8482C42.4718 24.1208 43.2585 23.1332 43.6403 21.8725C42.5608 22.457 41.4021 22.8817 40.2005 23.1333C39.7093 22.5928 39.1077 22.1641 38.4364 21.8762C37.7652 21.5883 37.04 21.4479 36.3098 21.4644C34.7825 21.4644 33.4954 22.0009 32.4421 23.0411C31.9346 23.5362 31.5333 24.1295 31.2628 24.7849C30.9923 25.4403 30.8582 26.1439 30.8687 26.8528C30.8687 27.3038 30.9246 27.7087 31.0398 28.051C26.5368 27.893 22.814 26.0299 19.8778 22.4354C19.3962 23.254 19.1385 24.1849 19.1306 25.1346C19.1306 27.0372 19.9338 28.5448 21.5335 29.654C20.6929 29.5972 19.8739 29.3627 19.1306 28.9661C19.1306 30.3255 19.5289 31.4612 20.332 32.4618C21.1319 33.4493 22.1655 34.0813 23.4229 34.348C22.9549 34.4664 22.4738 34.5251 21.991 34.5224C21.6616 34.5413 21.3314 34.5 21.0167 34.4006C21.359 35.5099 21.991 36.4053 22.9061 37.0932C23.8179 37.7845 24.8712 38.1465 26.0562 38.1795C24.1542 39.6917 21.7874 40.4989 19.3577 40.4639C18.7389 40.4639 18.3044 40.4573 18.041 40.4079C20.5087 42.013 23.3958 42.8524 26.3393 42.8207C29.4697 42.8207 32.238 42.0274 34.6409 40.4408C37.0438 38.8641 38.8246 36.9188 39.9635 34.6245C41.0913 32.4076 41.6789 29.9556 41.6785 27.4684V26.7804C42.7845 25.9476 43.6831 25.0095 44.3711 23.9693C43.3918 24.406 42.3556 24.7019 41.2934 24.8482V24.8482ZM30.5 60.125C22.3038 60.125 15.2431 57.1954 9.51233 51.4153C3.78154 45.6515 0.875 38.614 0.875 30.5C0.875 22.3103 3.78483 15.2464 9.52221 9.51563C15.2497 3.78483 22.307 0.875 30.5 0.875C38.6173 0.875 45.6548 3.78154 51.4153 9.51233C57.1954 15.2464 60.125 22.3103 60.125 30.5C60.125 38.614 57.1987 45.6548 51.4218 51.4251C45.6581 57.1954 38.6205 60.125 30.5 60.125ZM30.5 7.45833C24.0286 7.45833 18.6895 9.65388 14.1799 14.1733C9.65387 18.6895 7.45833 24.0286 7.45833 30.5C7.45833 36.899 9.65717 42.2249 14.1832 46.7773C18.6994 51.3297 24.0352 53.5417 30.5 53.5417C36.8957 53.5417 42.2183 51.3264 46.7674 46.7707C51.3264 42.215 53.5417 36.8891 53.5417 30.5C53.5417 24.0385 51.3297 18.6994 46.7773 14.1832C42.2249 9.65717 36.9023 7.45833 30.5 7.45833Z" fill="#777777"/>
</svg>
