<svg width="79" height="79" viewBox="0 0 79 79" fill="none" xmlns="http://www.w3.org/2000/svg">
<path d="M52.0695 32.9182C53.4418 32.071 54.358 30.921 54.8027 29.4528C53.5455 30.1335 52.1961 30.628 50.7968 30.921C50.2247 30.2916 49.5241 29.7924 48.7424 29.4571C47.9607 29.1218 47.1162 28.9583 46.2658 28.9775C44.4872 28.9775 42.9883 29.6023 41.7617 30.8137C41.1707 31.3902 40.7034 32.0812 40.3883 32.8445C40.0733 33.6077 39.9171 34.4271 39.9293 35.2527C39.9293 35.7778 39.9945 36.2493 40.1287 36.648C34.8847 36.464 30.5492 34.2943 27.1298 30.1083C26.569 31.0616 26.2689 32.1457 26.2597 33.2517C26.2597 35.4673 27.195 37.223 29.058 38.5148C28.0791 38.4486 27.1253 38.1756 26.2597 37.7137C26.2597 39.2968 26.7235 40.6193 27.6588 41.7847C28.5903 42.9347 29.794 43.6707 31.2583 43.9812C30.7133 44.1191 30.153 44.1874 29.5908 44.1843C29.2071 44.2063 28.8226 44.1582 28.4562 44.0425C28.8548 45.3343 29.5908 46.377 30.6565 47.1782C31.7183 47.9832 32.945 48.4048 34.325 48.4432C32.11 50.2042 29.3536 51.1442 26.5242 51.1035C25.8035 51.1035 25.2975 51.0958 24.9908 51.0383C27.8645 52.9075 31.2268 53.8851 34.6547 53.8482C38.3002 53.8482 41.524 52.9243 44.3223 51.0767C47.1207 49.2405 49.1945 46.975 50.5208 44.3032C51.8341 41.7215 52.5185 38.866 52.518 35.9695V35.1683C53.806 34.1985 54.8525 33.106 55.6537 31.8947C54.5132 32.4032 53.3065 32.7478 52.0695 32.9182V32.9182ZM39.5 74C29.955 74 21.7325 70.5883 15.0587 63.857C8.38483 57.1448 5 48.9492 5 39.5C5 29.9627 8.38867 21.7363 15.0702 15.0625C21.7402 8.38867 29.9588 5 39.5 5C48.953 5 57.1487 8.38483 63.857 15.0587C70.5883 21.7363 74 29.9627 74 39.5C74 48.9492 70.5922 57.1487 63.8647 63.8685C57.1525 70.5883 48.9568 74 39.5 74ZM39.5 12.6667C31.9637 12.6667 25.746 15.2235 20.4943 20.4867C15.2235 25.746 12.6667 31.9637 12.6667 39.5C12.6667 46.952 15.2273 53.1543 20.4982 58.4558C25.7575 63.7573 31.9713 66.3333 39.5 66.3333C46.9482 66.3333 53.1467 63.7535 58.4443 58.4482C63.7535 53.1428 66.3333 46.9405 66.3333 39.5C66.3333 31.9752 63.7573 25.7575 58.4558 20.4982C53.1543 15.2273 46.9558 12.6667 39.5 12.6667Z" fill="#777777"/>
</svg>
